<svg xmlns="http://www.w3.org/2000/svg" viewBox="0 0 443 639" width="443" height="639">
	<style>
		tspan { white-space:pre }
		.shp0 { fill: #44444f } 
		.shp1 { fill: #65e496 } 
		.shp2 { fill: #3d3d47 } 
	</style>
	<g id="book">
		<path id="book" class="shp0" d="M5 0L439.97 0C442.73 0 444.97 2.24 444.97 5L444.97 634C444.97 636.76 442.73 639 439.97 639L5 639C2.24 639 0 636.76 0 634L0 5C0 2.24 2.24 0 5 0Z" />
		<path id="Rectangle 10 copy" class="shp1" d="M376.05 536.05L541.47 370.66C553.48 358.65 572.95 358.65 584.96 370.66C596.96 382.66 596.96 402.13 584.96 414.13L419.54 579.53C407.53 591.53 388.06 591.53 376.05 579.53C364.04 567.52 364.04 548.05 376.05 536.05Z" />
		<path id="Rectangle 10 copy 2" class="shp1" d="M295.26 490.23L460.68 324.84C472.69 312.83 492.15 312.83 504.16 324.84C516.17 336.85 516.17 356.31 504.16 368.32L338.74 533.71C326.74 545.72 307.27 545.72 295.26 533.71C283.25 521.7 283.25 502.24 295.26 490.23Z" />
		<path id="Rectangle 9" class="shp2" d="M0 0L62.72 0L62.72 639L0 639L0 0Z" />
	</g>
</svg>