<svg xmlns="http://www.w3.org/2000/svg" viewBox="0 0 269 409" width="269" height="409">
	<style>
		tspan { white-space:pre }
		.shp0 { fill: #44444f } 
		.shp1 { fill: #65e496 } 
		.shp2 { fill: #3d3d47 } 
	</style>
	<g id="book img">
		<path id="book" class="shp0" d="M5 0L263.94 0C266.7 0 268.94 2.24 268.94 5L268.94 404C268.94 406.76 266.7 409 263.94 409L5 409C2.24 409 0 406.76 0 404L0 5C0 2.24 2.24 0 5 0Z" />
		<path id="Rectangle 11" class="shp1" d="M250.67 294.17L356.33 233.17C358.72 231.79 361.78 232.61 363.16 235C364.54 237.39 363.72 240.45 361.33 241.83L255.67 302.83C253.28 304.21 250.22 303.39 248.84 301C247.46 298.61 248.28 295.55 250.67 294.17Z" />
		<path id="Rectangle 11 copy" class="shp1" d="M250.67 267.17L356.33 206.17C358.72 204.79 361.78 205.61 363.16 208C364.54 210.39 363.72 213.45 361.33 214.83L255.67 275.83C253.28 277.21 250.22 276.39 248.84 274C247.46 271.61 248.28 268.55 250.67 267.17Z" />
		<path id="Rectangle 9" class="shp2" d="M0 0L37.91 0L37.91 409L0 409L0 0Z" />
	</g>
</svg>